<?xml version="1.0" encoding="UTF-8"?>
<svg id="Layer_1" data-name="Layer 1" xmlns="http://www.w3.org/2000/svg" viewBox="0 0 1917.59 571.67">
  <defs>
    <style>
      .cls-1 {
        fill: #ee964c;
      }

      .cls-2 {
        fill: #fff;
      }

      .cls-3 {
        fill: #196481;
      }
    </style>
  </defs>
  <g>
    <path class="cls-3" d="M264.72,30c-25.64,66.28-51.28,132.57-76.92,198.85-4.02,8.62-12.18,14.46-21.26,15.08-11.09.75-21.8-6.41-25.82-17.66-33.17-68.64-54.46-120.84-57.41-138.3-.58-3.4-1.99-11.79,1.89-20.41,4.04-8.95,11.47-14.11,15.64-15.85,11.53-4.8,97.72-40.57,135.14-50.06,5.66-1.43,15.94-3.56,22.84,1.74,7.71,5.92,10.35,17.05,5.89,26.6Z"/>
    <path class="cls-2" d="M338.03,498.33c-11.22,13.52-27.52,20.77-36.34,16.23-8.74-4.5-6.82-18.88,4.2-32.17,11.03-13.29,27.14-20.63,36.07-16.36,9.01,4.31,7.29,18.79-3.93,32.31Z"/>
    <path class="cls-1" d="M377.02,471.41c-3.06-23.15-26.14-196.05-45.94-265.45-3-10.5-9.2-29.1-24.26-35.29-16.8-6.9-37.27-.72-48.53,15.44C175.21,289.78,92.13,393.45,9.04,497.12c-10.16,14.59-11.95,33.26-4.41,48.53,9.2,18.64,30.82,29.22,52.78,25.17,6.68-.51,13.25-1.03,19.76-1.55.36-3.83,1.76-6.97,3.95-8.15,3.24-1.74,7.08,1.38,9.12,7.07,2.24-.19,4.49-.37,6.71-.56.2-4.27,1.63-7.85,4-9.12,3.4-1.83,7.46,1.71,9.4,7.96,2.15-.19,4.28-.38,6.41-.58.04-4.65,1.49-8.63,4.03-10,3.54-1.9,7.81,2,9.64,8.74,2.06-.19,4.11-.39,6.15-.58-.13-4.98,1.37-9.33,4.05-10.77,3.62-1.95,8.01,2.15,9.77,9.16.02.09.03.17.05.26,2.01-.2,4.03-.4,6.02-.6-.29-5.25,1.2-9.92,4-11.42,3.62-1.95,8.01,2.15,9.77,9.16.07.27.1.55.16.82,2-.21,3.98-.42,5.95-.64-.42-5.46,1.06-10.4,3.95-11.95,3.62-1.95,8.01,2.15,9.77,9.16.1.42.16.83.24,1.25,1.99-.22,3.94-.45,5.9-.68-.53-5.62.96-10.75,3.92-12.34,3.62-1.95,8.01,2.15,9.77,9.16.13.51.2,1.02.3,1.54,1.98-.24,3.92-.48,5.87-.72-.59-5.71.9-10.97,3.9-12.58,3.62-1.95,8.01,2.15,9.77,9.16.14.55.22,1.1.32,1.64,1.97-.26,3.92-.52,5.85-.78-.61-5.73.89-11.02,3.9-12.64,3.62-1.95,8.01,2.15,9.77,9.16.13.52.21,1.03.3,1.55,1.97-.28,3.94-.56,5.85-.84-.56-5.67.93-10.87,3.91-12.47,3.62-1.95,8.01,2.15,9.77,9.16.1.4.15.8.23,1.2,2-.32,3.95-.63,5.88-.95-.44-5.49,1.05-10.46,3.95-12.02,3.62-1.95,8.01,2.15,9.77,9.16.04.16.06.33.09.49,2.04-.37,4.02-.73,5.95-1.1-.23-5.14,1.27-9.69,4.02-11.16,3.49-1.87,7.67,1.89,9.55,8.44,11.23-2.42,20.01-4.78,26.01-7.03,6.04-2.27,20.93-7.85,31.21-22.21,10.68-14.93,12.04-31.79,10.94-40.17Z"/>
    <path class="cls-2" d="M338.03,490.33c-11.22,13.52-27.52,20.77-36.34,16.23-8.74-4.5-6.82-18.88,4.2-32.17,11.03-13.29,27.14-20.63,36.07-16.36,9.01,4.31,7.29,18.79-3.93,32.31Z"/>
  </g>
  <g>
    <path class="cls-1" d="M642.92,155.4c59.06,0,101.45,35.51,118.48,73.55l-47.83,18.48c-11.95-25-37.68-44.56-70.65-44.56-44.93,0-79.71,36.23-79.71,82.97s34.78,82.97,79.71,82.97c32.97,0,58.7-19.57,70.65-44.57l47.83,18.48c-17.03,38.04-59.42,73.54-118.48,73.54-75.36,0-133.33-56.88-133.33-130.43s57.97-130.44,133.33-130.44Z"/>
    <path class="cls-1" d="M963.57,412.65l-18.11-55.07h-119.2l-17.76,55.07h-52.53l85.51-253.62h92.03l85.51,253.62h-55.44ZM841.11,311.57h89.49l-44.57-137.32-44.93,137.32Z"/>
    <path class="cls-1" d="M1040.03,412.65v-253.62h168.84v46.01h-117.03v57.97h113.41v45.65h-113.41v57.97h117.03v46.01h-168.84Z"/>
    <path class="cls-3" d="M1449.1,412.65h-61.6l-59.42-90.21h-32.61v90.21h-51.81v-253.62h109.05c54.35,0,89.49,34.78,89.49,81.52,0,36.23-21.01,65.58-56.15,76.81l63.04,95.29ZM1295.47,205.04v69.93h57.25c21.74,0,36.23-14.86,36.23-34.78s-14.49-35.15-36.23-35.15h-57.25Z"/>
    <path class="cls-3" d="M1469.76,159.03h51.81v153.99c0,32.25,22.82,55.79,57.97,55.79s57.97-23.55,57.97-55.79v-153.99h51.81v153.99c0,60.14-45.65,103.25-109.78,103.25s-109.79-43.11-109.79-103.25v-153.99Z"/>
    <path class="cls-3" d="M1773.39,335.11c3.99,22.47,20.29,36.6,48.55,36.6,25.36,0,42.03-13.41,42.03-29.71,0-48.91-137.32-17.76-137.32-111.6,0-42.76,40.94-75,93.11-75s89.49,29.35,95.66,70.66l-52.54,10.5c-3.98-21.74-19.93-36.59-44.93-36.59-22.46,0-37.68,11.59-37.68,27.53,0,46.74,137.31,15.58,137.31,113.05,0,43.48-42.75,75.72-97.1,75.72s-93.11-27.89-99.64-70.65l52.53-10.51Z"/>
  </g>
</svg>